<svg width="512" height="512" version="1.1" xmlns="http://www.w3.org/2000/svg"><path d="M498.3 250.5c26.2-78.5-6-90.8-32.2-85.4-26.2 5.5 27.3 73.1-33.8 84-61.1 11-100.4 6.6-100.4 6.6s-133-17.5-156 25c0 0-87.3 53.5-108 6.6C47.2 240.4 86.5 186 53.7 180.4 21 175-8.3 204 8.1 260.7c13 44.7 49 103 121 84.5 9.3-2.3 20-6.3 29.5-10.3-24.8 24.2-67 55.5-106.4 38.6-60.8-26.2-36 60.1 13.5 55.5 36-3.4 86-46.4 112.5-80-8.4 30.3-28.2 77.6-72.1 85.6-65.5 12-32.7 62.2 5.5 61.1 38.1-1 77.4-67.6 91.6-117.8 14.2-50.2 15.3-44.7 15.3-44.7s-26.2 147.2 8.7 168c34.9 20.7 61-5.5 52.4-33.9-8.8-28.3-26.2-94.9-16.4-117.8 9.8-22.9 24 116.8 67.6 134.2 43.7 17.5 59 2.2 49.1-26.2-9.8-28.3-57.8-65.4-60-103.6-1.4-25.1-.3 25-3.3-26.2 0 0 50.2 124.4 89.5 135.3 39.3 10.9 38.2-30.6 38.2-30.6s-61.1-46.9-77.5-82.9l-16.3-36s89.4 132 115.6 108c26.2-24 4.4-44.7-39.3-74.2-43.6-29.4-62.2-54.5-62.2-54.5s107.5 36.3 133.7-42.3" fill="#c7534d"/><path d="M498.3 250.5c26.2-78.5-6-90.8-32.2-85.4-26.2 5.5 27.3 73.1-33.8 84-61.1 11-100.4 6.6-100.4 6.6s-133-17.5-156 25c0 0-87.3 53.5-108 6.6C47.2 240.4 86.5 186 53.7 180.4 21 175-8.3 204 8.1 260.7c13 44.7 49 103 121 84.5 9.3-2.3 20-6.3 29.5-10.3-24.8 24.2-67 55.5-106.4 38.6-60.8-26.2-36 60.1 13.5 55.5 36-3.4 86-46.4 112.5-80-8.4 30.3-28.2 77.6-72.1 85.6-65.5 12-32.7 62.2 5.5 61.1 38.1-1 77.4-67.6 91.6-117.8 14.2-50.2 15.3-44.7 15.3-44.7s-26.2 147.2 8.7 168c34.9 20.7 61-5.5 52.4-33.9-8.8-28.3-26.2-94.9-16.4-117.8 9.8-22.9 24 116.8 67.6 134.2 43.7 17.5 59 2.2 49.1-26.2-9.8-28.3-57.8-65.4-60-103.6-1.4-25.1-.3 25-3.3-26.2 0 0 50.2 124.4 89.5 135.3 39.3 10.9 38.2-30.6 38.2-30.6s-61.1-46.9-77.5-82.9l-16.3-36s89.4 132 115.6 108c26.2-24 4.4-44.7-39.3-74.2-43.6-29.4-62.2-54.5-62.2-54.5s107.5 36.3 133.7-42.3zm0 0" fill="none" stroke-width="6.8" stroke-linecap="round" stroke-linejoin="round" stroke="#5f4a3e"/><path d="M401 150.8a147.3 147.3 0 1 1-294.5 0 147.3 147.3 0 0 1 294.5 0" fill="#c7534d"/><path d="M401 150.8a147.3 147.3 0 1 1-294.5 0 147.3 147.3 0 0 1 294.5 0zm0 0" fill="none" stroke-width="6.8" stroke-linecap="round" stroke="#5f4a3e"/><path d="M206.6 174.7c0 12 7.1 21.7 16 21.7 8.8 0 15.9-9.7 15.9-21.7s-7.1-21.6-16-21.6c-8.8 0-16 9.7-16 21.6M329 169c0 12 7.1 21.6 16 21.6 8.7 0 15.9-9.7 15.9-21.6 0-12-7.2-21.7-16-21.7s-16 9.7-16 21.7" fill="#5f4a3e"/><path d="M499 198.2c0 4.9-3.4 8.8-7.6 8.8-4.1 0-7.5-4-7.5-8.8 0-4.9 3.4-8.8 7.5-8.8 4.2 0 7.6 4 7.6 8.8m-465.2 209c0 4.9-3.4 8.8-7.5 8.8-4.2 0-7.6-4-7.6-8.8 0-4.9 3.4-8.8 7.6-8.8 4.1 0 7.5 4 7.5 8.8m322.9 75.5c0 4.9-3.3 8.8-7.5 8.8s-7.6-3.9-7.6-8.8c0-4.8 3.4-8.8 7.6-8.8 4.2 0 7.5 4 7.5 8.8m-24.5-9.4c0 4.9-3.4 8.8-7.6 8.8-4.1 0-7.5-4-7.5-8.8 0-4.9 3.4-8.8 7.5-8.8 4.2 0 7.6 4 7.6 8.8m169.4-245.1c0 5-3.4 8.9-7.6 8.9-4.2 0-7.5-4-7.5-8.9 0-4.8 3.3-8.8 7.5-8.8s7.6 4 7.6 8.8M23.1 207.7c0 4.8-3.4 8.8-7.5 8.8-4.2 0-7.6-4-7.6-8.8 0-5 3.4-8.9 7.6-8.9 4.1 0 7.5 4 7.5 8.9m-7.5 27.6c0 5-3.4 8.9-7.6 8.9-4.2 0-7.5-4-7.5-8.9 0-4.8 3.3-8.8 7.5-8.8s7.6 4 7.6 8.8m448.8 185.1c0 4.9-3.4 8.8-7.6 8.8-4.1 0-7.5-4-7.5-8.8 0-4.9 3.4-8.8 7.5-8.8 4.2 0 7.6 4 7.6 8.8m-19.5-10.1c0 4.9-3.4 8.8-7.6 8.8-4.2 0-7.6-3.9-7.6-8.8 0-4.8 3.4-8.8 7.6-8.8 4.2 0 7.6 4 7.6 8.8m42.1-151c0 4.8-3.3 8.8-7.5 8.8s-7.6-4-7.6-8.8c0-5 3.4-8.9 7.6-8.9 4.2 0 7.5 4 7.5 8.9M37 258c0 4.9-3.4 8.8-7.6 8.8-4.2 0-7.5-4-7.5-8.8 0-4.9 3.3-8.8 7.5-8.8s7.6 4 7.6 8.8m425.9 22c0 4-2.7 7-6 7-3.4 0-6.1-3-6.1-7 0-3.9 2.7-7 6-7 3.4 0 6 3.1 6 7M75.1 335.4c0 4-2.7 7-6 7-3.4 0-6-3-6-7 0-3.9 2.6-7 6-7 3.3 0 6 3.1 6 7m25.9-3.7c0 3.9-2.8 7-6.1 7-3.4 0-6-3.1-6-7 0-4 2.6-7 6-7 3.3 0 6 3 6 7M55 422.3c0 3.9-2.7 7-6 7-3.4 0-6.1-3.1-6.1-7s2.7-7 6-7c3.4 0 6 3.1 6 7m27.8-8.2c0 4-2.7 7-6 7-3.4 0-6.1-3-6.1-7 0-3.9 2.7-7 6-7 3.4 0 6 3.1 6 7m19-5.1c0 4-2.7 7.1-6 7.1-3.4 0-6.1-3.1-6.1-7 0-4 2.7-7 6-7 3.4 0 6 3 6 7m20.9-9.5c0 3.2-2.2 5.7-4.9 5.7-2.6 0-4.8-2.5-4.8-5.7 0-3 2.2-5.6 4.8-5.6 2.7 0 4.9 2.5 4.9 5.6m0 92c0 3-2.2 5.6-4.9 5.6-2.6 0-4.8-2.5-4.8-5.6 0-3.2 2.2-5.7 4.8-5.7 2.7 0 4.9 2.5 4.9 5.7m17.6-13.3c0 3.1-2.2 5.6-4.8 5.6-2.7 0-4.9-2.5-4.9-5.6 0-3.1 2.2-5.6 4.9-5.6 2.6 0 4.8 2.5 4.8 5.6m18.3-9.4c0 3-2.2 5.6-4.9 5.6-2.6 0-4.8-2.5-4.8-5.6 0-3.2 2.2-5.7 4.8-5.7 2.7 0 4.9 2.5 4.9 5.7m17.6-25.2c0 3-2.2 5.6-4.9 5.6-2.6 0-4.8-2.5-4.8-5.6 0-3.1 2.2-5.7 4.8-5.7 2.7 0 4.9 2.6 4.9 5.7m49.1 15.1c0 3.1-2.2 5.6-4.9 5.6-2.6 0-4.8-2.5-4.8-5.6 0-3.1 2.2-5.7 4.8-5.7 2.7 0 4.9 2.6 4.9 5.7m-7.6-22c0 3-2.1 5.6-4.8 5.6-2.7 0-4.9-2.5-4.9-5.6 0-3.2 2.2-5.7 4.9-5.7s4.8 2.5 4.8 5.7m-.6-24.6c0 3.1-2.2 5.6-4.8 5.6-2.7 0-4.9-2.5-4.9-5.6 0-3.1 2.2-5.6 4.9-5.6 2.6 0 4.8 2.5 4.8 5.6m-90.7-71.7c0 3.9-2.7 7-6 7-3.4 0-6-3.1-6-7 0-4 2.6-7 6-7 3.3 0 6 3 6 7M36 285c0 4-2.6 7.1-6 7.1-3.3 0-6-3.1-6-7 0-4 2.7-7 6-7 3.4 0 6 3 6 7m282.1 170.6c0 3.9-2.7 7-6 7-3.4 0-6-3.1-6-7 0-4 2.6-7 6-7 3.3 0 6 3 6 7m-80.6 47.2c0 3.9-2.7 7-6 7-3.4 0-6-3.1-6-7 0-4 2.6-7 6-7 3.3 0 6 3 6 7M226.2 477c0 4-2.7 7.1-6 7.1-3.4 0-6.1-3.1-6.1-7 0-4 2.7-7 6-7 3.4 0 6.1 3 6.1 7m82.2-42.7c0 4-2.7 7-6 7-3.4 0-6-3-6-7 0-3.9 2.6-7 6-7 3.3 0 6 3.1 6 7m-7.9-23.4c0 3.9-2.7 7-6 7-3.4 0-6.1-3.1-6.1-7 0-4 2.7-7 6-7 3.4 0 6 3 6 7m129.1-17c0 3.9-2.7 7-6 7-3.4 0-6-3.1-6-7 0-4 2.6-7 6-7 3.3 0 6 3 6 7m-16.4-15.8c0 4-2.7 7-6 7s-6-3-6-7c0-3.9 2.7-7 6-7s6 3.1 6 7m7.6 81.8c0 4-2.7 7.1-6 7.1-3.4 0-6-3.1-6-7 0-4 2.6-7 6-7 3.3 0 6 3 6 7m-18.9-6.3c0 3.9-2.7 7-6 7-3.4 0-6-3.1-6-7 0-4 2.6-7 6-7 3.3 0 6 3 6 7m-12.4-18c0 4-2.7 7-6 7-3.4 0-6.1-3-6.1-7 0-3.9 2.7-7 6-7 3.4 0 6.1 3.1 6.1 7m-10-14.6c0 3.5-2.4 6.4-5.4 6.4-3 0-5.4-2.9-5.4-6.4 0-3.5 2.4-6.3 5.4-6.3 3 0 5.4 2.8 5.4 6.3m55.8-130.9c0 3.9-2.7 7-6 7-3.4 0-6.1-3.1-6.1-7s2.7-7 6-7c3.4 0 6 3.1 6 7M57.5 316.7c0 4-2.7 7-6 7-3.4 0-6.1-3-6.1-7 0-3.9 2.7-7 6-7 3.4 0 6 3.1 6 7" fill="#e88366"/><path d="M275.7 193.3c3.2-2.2 26.2-18.6 42-16.4" fill="none" stroke-width="6.8" stroke-linecap="round" stroke-linejoin="round" stroke="#5f4a3e"/><path d="M351 208.2a33.3 33.3 0 1 1-66.6 0 33.3 33.3 0 0 1 66.5 0" fill="#b25a4c"/><path d="M351 208.2a33.3 33.3 0 1 1-66.6 0 33.3 33.3 0 0 1 66.5 0zm0 0" fill="none" stroke-width="6.8" stroke-linecap="round" stroke="#5f4a3e"/><path d="M334 208.2a16.3 16.3 0 1 1-32.6 0 16.3 16.3 0 0 1 32.6 0" fill="#816e60"/><path d="M334 208.2a16.3 16.3 0 1 1-32.6 0 16.3 16.3 0 0 1 32.6 0zm0 0" fill="none" stroke-width="6.8" stroke-linecap="round" stroke="#5f4a3e"/><path d="M323.8 241.2s-26.6 1.4-39.5-3.6" fill="none" stroke-width="6.8" stroke-linecap="round" stroke-linejoin="round" stroke="#5f4a3e"/><path d="M106.1 128.4S196 93.2 286.4 93.2c90.5 0 110.7 19.4 110.7 19.4s-6.5-53.9-41-66c-34.5-12.3-183.9-20.2-233.4 32.2-21.6 36.7-16.6 49.6-16.6 49.6" fill="#fffffe"/><path d="M106.1 128.4S196 93.2 286.4 93.2c90.5 0 110.7 19.4 110.7 19.4s-6.5-53.9-41-66c-34.5-12.3-183.9-20.2-233.4 32.2-21.6 36.7-16.6 49.6-16.6 49.6zm0 0" fill="none" stroke-width="6.8" stroke-linecap="round" stroke-linejoin="round" stroke="#5f4a3e"/><path d="M106.1 128.4S196 93.2 286.4 93.2c90.5 0 110.7 19.4 110.7 19.4s-6.5-53.9-41-66c-34.5-12.3-183.9-20.2-233.4 32.2-21.6 36.7-16.6 49.6-16.6 49.6" fill="#fffffe" fill-opacity="0.5"/><path d="m124.5 81.2 42-58.8s21.5 40.3 29.4 53.5c7.9 13.2-27.2 34.3-41 32.4-13.6-1.9-7.3 2.8-33.2 30.5-25.8 27.7-39-14.8-40-23.7-.8-8.8 33.8-20.7 33.8-20.7l9-13.2" fill="#fffffe"/><path d="m124.5 81.2 42-58.8s21.5 40.3 29.4 53.5c7.9 13.2-27.2 34.3-41 32.4-13.6-1.9-7.3 2.8-33.2 30.5-25.8 27.7-39-14.8-40-23.7-.8-8.8 33.8-20.7 33.8-20.7zm0 0" fill="none" stroke-width="6.8" stroke-linecap="round" stroke-linejoin="round" stroke="#5f4a3e"/><path d="m124.5 81.2 42-58.8s21.5 40.3 29.4 53.5c7.9 13.2-27.2 34.3-41 32.4-13.6-1.9-7.3 2.8-33.2 30.5-25.8 27.7-39-14.8-40-23.7-.8-8.8 33.8-20.7 33.8-20.7l9-13.2" fill="#fffffe" fill-opacity="0.5"/><path d="M139.6 123.5s-29.2-1.5-32.3-28.6c-3.1-27 25.8-36.5 25.8-36.5s14.2 32.2 24.6 37.6c10.5 5.4-6.1 27-18 27.5" fill="#fffffe"/><path d="M139.6 123.5s-29.2-1.5-32.3-28.6c-3.1-27 25.8-36.5 25.8-36.5s14.2 32.2 24.6 37.6c10.5 5.4-6.1 27-18 27.5zm0 0" fill="none" stroke-width="6.8" stroke-linecap="round" stroke-linejoin="round" stroke="#5f4a3e"/><path d="M139.6 123.5s-29.2-1.5-32.3-28.6c-3.1-27 25.8-36.5 25.8-36.5s14.2 32.2 24.6 37.6c10.5 5.4-6.1 27-18 27.5" fill="#fffffe" fill-opacity="0.5"/></svg>